<svg xmlns="http://www.w3.org/2000/svg" width="161" height="27" fill="none"><path fill="#fff" fill-rule="evenodd" d="M.64 18.244v7.366L21.603 8.285V.919L.64 18.244z" clip-rule="evenodd"/><path fill="#F4F4F5" fill-rule="evenodd" d="M12.604 18.244v7.366L33.567 8.285V.919L12.604 18.244z" clip-rule="evenodd"/><path fill="#fff" d="M54.867 26.384c1.251 0 2.525-.12 3.822-.359a27.364 27.364 0 0 0 4.009-1.074v-8.155l.546-.478 2.03-.17v-1.723H55.072v1.723l2.593.17.546.478v7.131c-.432.034-.813.06-1.143.077-.33.017-.586.025-.768.025-2.718 0-4.842-.878-6.372-2.635-1.53-1.758-2.294-4.194-2.294-7.31 0-3.037.748-5.423 2.243-7.157 1.496-1.735 3.551-2.602 6.167-2.602.524 0 1.024.045 1.502.136a6.85 6.85 0 0 1 1.398.427l.53.631.665 3.702h2.559V3.284a28.997 28.997 0 0 0-3.796-.87 23.194 23.194 0 0 0-3.591-.29c-3.844 0-6.93 1.09-9.255 3.267-2.326 2.178-3.49 5.076-3.49 8.692 0 3.651 1.138 6.614 3.413 8.889 2.275 2.274 5.237 3.412 8.888 3.412zm20.007-.154c2.73 0 4.92-.796 6.568-2.388 1.65-1.593 2.474-3.697 2.474-6.313 0-2.763-.79-4.956-2.371-6.576-1.581-1.62-3.714-2.431-6.398-2.431-2.73 0-4.919.816-6.568 2.448-1.65 1.632-2.474 3.796-2.474 6.491 0 2.628.805 4.746 2.414 6.355 1.61 1.61 3.728 2.414 6.355 2.414zm.103-1.842c-1.263 0-2.25-.62-2.96-1.86-.711-1.24-1.067-2.974-1.067-5.203 0-2.195.358-3.901 1.075-5.118.717-1.217 1.712-1.826 2.986-1.826 1.285 0 2.288.62 3.01 1.86.723 1.24 1.084 2.968 1.084 5.186 0 2.23-.358 3.947-1.075 5.152-.716 1.206-1.734 1.809-3.053 1.809zm16.492 1.57c1.376 0 2.55-.066 3.523-.197.972-.13 1.777-.333 2.414-.606 1.797-.807 3.165-1.947 4.103-3.42.938-1.473 1.407-3.222 1.407-5.246 0-2.332-.642-4.237-1.928-5.715-1.285-1.479-2.934-2.218-4.947-2.218-.762 0-1.558.128-2.388.384-.83.256-1.723.65-2.679 1.185V.145h-1.672l-5.186 1.638v1.365h2.525v22.74l3.873.07h.955zm.614-1.86c-.296 0-.523-.003-.682-.009a7.946 7.946 0 0 1-.427-.025V11.558c.455-.09.862-.159 1.22-.204a7.84 7.84 0 0 1 .981-.068c1.626 0 2.877.526 3.753 1.578.876 1.052 1.314 2.561 1.314 4.529 0 2.297-.498 3.99-1.493 5.075-.995 1.087-2.55 1.63-4.666 1.63zm20.792 2.132c2.729 0 4.919-.796 6.568-2.388 1.649-1.593 2.474-3.697 2.474-6.313 0-2.763-.791-4.956-2.372-6.576-1.581-1.62-3.713-2.431-6.397-2.431-2.73 0-4.919.816-6.568 2.448-1.649 1.632-2.474 3.796-2.474 6.491 0 2.628.805 4.746 2.414 6.355 1.609 1.61 3.728 2.414 6.355 2.414zm.102-1.842c-1.262 0-2.249-.62-2.96-1.86-.711-1.24-1.066-2.974-1.066-5.203 0-2.195.358-3.901 1.075-5.118.716-1.217 1.711-1.826 2.985-1.826 1.285 0 2.289.62 3.011 1.86.723 1.24 1.084 2.968 1.084 5.186 0 2.23-.359 3.947-1.075 5.152-.717 1.206-1.735 1.809-3.054 1.809zm18.54 1.57v-1.57l-1.536-.137-.477-.529V12.19a20.692 20.692 0 0 1 1.851-.444 8.105 8.105 0 0 1 1.458-.153c1.092 0 1.888.304 2.389.912.5.609.751 1.561.751 2.858v8.36l-.478.528-1.501.137v1.57h8.547v-1.57l-1.843-.137-.46-.529v-9.366c0-1.956-.393-3.412-1.178-4.367-.784-.955-1.973-1.433-3.565-1.433-.717 0-1.558.17-2.525.512-.967.34-2.116.881-3.446 1.62V8.624h-1.689l-5.033 1.638v1.399h2.389v12.061l-.495.53-1.791.136v1.57h8.632zm16.237.306c.887 0 1.814-.182 2.78-.546.967-.364 2.042-.95 3.225-1.757l.46 1.996h6.227v-1.535l-1.859-.17-.461-.496v-9.041c0-2.287-.489-3.89-1.467-4.811-.978-.922-2.667-1.382-5.067-1.382-2.138 0-3.941.404-5.408 1.211-1.467.807-2.201 1.757-2.201 2.849 0 .444.128.768.384.973.256.204.663.306 1.22.306h3.224v-3.275c.319-.068.614-.12.887-.154s.535-.05.785-.05c1.149 0 1.99.29 2.525.87.535.58.802 1.5.802 2.763v1.04c-4.584 1.036-7.501 1.997-8.752 2.884-1.251.887-1.877 2.15-1.877 3.787 0 1.33.427 2.42 1.28 3.267.853.848 1.95 1.271 3.293 1.271zm2.627-2.678c-.796 0-1.428-.236-1.894-.708-.466-.472-.699-1.112-.699-1.92 0-1.034.42-1.853 1.262-2.456.842-.603 2.411-1.16 4.709-1.672v5.698a11.88 11.88 0 0 1-1.868.793c-.563.177-1.067.265-1.51.265z"/></svg>