<svg xmlns="http://www.w3.org/2000/svg" width="208" height="68" fill="none"><rect width="67.094" height="67.094" x=".264" fill="#D9ED87" rx="33.547"/><path fill="#123638" d="M19.107 18.844H33.81v14.703H19.107zm20.586 0h14.703v14.703H39.693zM13.226 33.547h14.703V48.25H13.226zm20.584 0h14.703V48.25H33.81z"/><path fill="#fff" d="M99.285 27.683c-.108-1.098-.576-1.951-1.402-2.56-.826-.608-1.947-.912-3.363-.912-.962 0-1.774.137-2.437.409-.662.263-1.17.63-1.525 1.103a2.654 2.654 0 0 0-.517 1.606c-.018.5.086.935.313 1.307.236.372.558.695.967.967.408.263.88.495 1.416.694.535.19 1.107.354 1.715.49l2.505.6c1.217.272 2.333.635 3.35 1.089 1.016.453 1.897 1.012 2.641 1.674a6.958 6.958 0 0 1 1.729 2.342c.418.899.631 1.929.64 3.09-.009 1.707-.445 3.187-1.307 4.44-.853 1.243-2.088 2.21-3.703 2.9-1.607.68-3.545 1.02-5.814 1.02-2.251 0-4.212-.345-5.882-1.035-1.66-.69-2.959-1.71-3.894-3.063-.925-1.361-1.41-3.045-1.456-5.051h5.704c.064.935.332 1.715.804 2.342.48.617 1.12 1.084 1.92 1.402.807.309 1.72.463 2.736.463.998 0 1.865-.145 2.6-.436.745-.29 1.321-.694 1.73-1.211a2.799 2.799 0 0 0 .612-1.784c0-.626-.186-1.153-.558-1.58-.363-.426-.899-.789-1.607-1.088-.698-.3-1.556-.572-2.573-.817l-3.036-.763c-2.35-.572-4.207-1.466-5.569-2.682-1.361-1.216-2.037-2.855-2.028-4.915-.01-1.688.44-3.163 1.348-4.425.916-1.261 2.174-2.246 3.771-2.954 1.598-.708 3.413-1.062 5.446-1.062 2.07 0 3.876.354 5.419 1.062 1.552.708 2.759 1.693 3.621 2.954.863 1.262 1.307 2.723 1.335 4.384h-5.65zm15.852 20.26c-1.335 0-2.524-.232-3.567-.695-1.044-.472-1.87-1.166-2.478-2.083-.599-.926-.899-2.079-.899-3.458 0-1.162.213-2.138.64-2.928a5.178 5.178 0 0 1 1.743-1.906 8.445 8.445 0 0 1 2.505-1.089 19.081 19.081 0 0 1 2.968-.517 75.46 75.46 0 0 0 2.941-.354c.744-.118 1.284-.29 1.62-.518.336-.227.504-.562.504-1.007v-.082c0-.862-.273-1.53-.817-2.001-.536-.472-1.298-.708-2.288-.708-1.043 0-1.874.231-2.491.694-.617.454-1.026 1.026-1.225 1.716l-5.365-.436c.273-1.27.808-2.369 1.607-3.295.799-.935 1.829-1.652 3.09-2.151 1.271-.508 2.742-.762 4.412-.762 1.161 0 2.273.136 3.335.408 1.071.272 2.02.694 2.846 1.266a6.153 6.153 0 0 1 1.974 2.206c.481.89.722 1.956.722 3.2v14.104h-5.501v-2.9h-.163a5.901 5.901 0 0 1-1.348 1.73c-.563.49-1.239.875-2.029 1.157-.789.272-1.702.408-2.736.408zm1.661-4.004c.853 0 1.606-.167 2.26-.503a4.006 4.006 0 0 0 1.538-1.39c.372-.58.558-1.238.558-1.973v-2.22a3.1 3.1 0 0 1-.748.327c-.309.091-.658.177-1.049.259-.39.073-.78.14-1.171.204l-1.062.15c-.68.1-1.275.259-1.783.477-.508.217-.903.512-1.185.884-.281.363-.422.817-.422 1.362 0 .79.286 1.393.858 1.81.581.41 1.316.613 2.206.613zm20.579 4.003c-1.335 0-2.524-.231-3.567-.694-1.044-.472-1.87-1.166-2.478-2.083-.599-.926-.899-2.079-.899-3.458 0-1.162.213-2.138.64-2.928a5.178 5.178 0 0 1 1.743-1.906 8.445 8.445 0 0 1 2.505-1.089 19.081 19.081 0 0 1 2.968-.517 75.46 75.46 0 0 0 2.941-.354c.744-.118 1.284-.29 1.62-.518.336-.227.504-.562.504-1.007v-.082c0-.862-.273-1.53-.817-2.001-.536-.472-1.298-.708-2.288-.708-1.043 0-1.874.231-2.491.694-.617.454-1.026 1.026-1.225 1.716l-5.365-.436c.273-1.27.808-2.369 1.607-3.295.799-.935 1.829-1.652 3.09-2.151 1.271-.508 2.742-.762 4.412-.762 1.161 0 2.273.136 3.335.408 1.071.272 2.02.694 2.846 1.266a6.153 6.153 0 0 1 1.974 2.206c.481.89.722 1.956.722 3.2v14.104h-5.501v-2.9h-.163a5.901 5.901 0 0 1-1.348 1.73c-.563.49-1.239.875-2.029 1.157-.789.272-1.702.408-2.736.408zm1.661-4.003c.853 0 1.606-.167 2.26-.503a4.006 4.006 0 0 0 1.538-1.39c.372-.58.558-1.238.558-1.973v-2.22a3.1 3.1 0 0 1-.748.327c-.309.091-.658.177-1.049.259-.39.073-.78.14-1.171.204l-1.062.15c-.68.1-1.275.259-1.783.477-.508.217-.903.512-1.185.884-.281.363-.422.817-.422 1.362 0 .79.286 1.393.858 1.81.581.41 1.316.613 2.206.613zm32.015-11.34-5.31.326a2.742 2.742 0 0 0-.585-1.225 3.108 3.108 0 0 0-1.185-.885c-.481-.227-1.057-.34-1.729-.34-.898 0-1.656.19-2.273.571-.618.372-.926.871-.926 1.498 0 .499.199.921.599 1.266.399.345 1.084.622 2.056.83l3.785.763c2.033.417 3.549 1.089 4.547 2.015.998.926 1.498 2.142 1.498 3.649 0 1.37-.404 2.573-1.212 3.608-.799 1.034-1.897 1.842-3.295 2.423-1.389.572-2.991.858-4.806.858-2.768 0-4.974-.577-6.617-1.73-1.634-1.161-2.591-2.74-2.873-4.737l5.705-.3c.173.844.59 1.489 1.253 1.934.662.435 1.511.653 2.546.653 1.016 0 1.833-.195 2.45-.585.627-.4.944-.913.953-1.539-.009-.526-.231-.958-.667-1.293-.435-.345-1.107-.608-2.015-.79l-3.621-.722c-2.043-.408-3.563-1.116-4.561-2.123-.99-1.008-1.484-2.292-1.484-3.853 0-1.344.363-2.501 1.089-3.472.735-.972 1.765-1.72 3.09-2.247 1.335-.526 2.896-.79 4.684-.79 2.641 0 4.72.559 6.236 1.675 1.524 1.117 2.414 2.637 2.668 4.561zm4.129 14.948V26.635h5.8v20.912h-5.8zm2.913-23.608c-.862 0-1.602-.286-2.219-.858-.608-.58-.912-1.275-.912-2.083 0-.799.304-1.484.912-2.056.617-.58 1.357-.87 2.219-.87.863 0 1.598.29 2.206.87.617.572.926 1.258.926 2.056 0 .808-.309 1.502-.926 2.083-.608.572-1.343.858-2.206.858zm16.982 24.017c-2.115 0-3.944-.45-5.487-1.348-1.534-.908-2.719-2.17-3.554-3.785-.835-1.625-1.252-3.508-1.252-5.65 0-2.16.417-4.048 1.252-5.664.835-1.625 2.02-2.886 3.554-3.785 1.543-.908 3.372-1.361 5.487-1.361s3.939.453 5.473 1.361c1.543.899 2.732 2.16 3.567 3.785.835 1.616 1.253 3.504 1.253 5.664 0 2.142-.418 4.025-1.253 5.65-.835 1.616-2.024 2.877-3.567 3.785-1.534.899-3.358 1.348-5.473 1.348zm.027-4.493c.962 0 1.765-.272 2.41-.817.644-.554 1.13-1.307 1.457-2.26.335-.953.503-2.038.503-3.254 0-1.216-.168-2.301-.503-3.254-.327-.953-.813-1.706-1.457-2.26-.645-.554-1.448-.83-2.41-.83-.971 0-1.788.276-2.451.83-.653.554-1.148 1.307-1.484 2.26-.327.953-.49 2.038-.49 3.254 0 1.216.163 2.3.49 3.254.336.953.831 1.706 1.484 2.26.663.545 1.48.817 2.451.817z"/></svg>