<svg xmlns="http://www.w3.org/2000/svg" width="114" height="36" fill="none"><rect width="36" height="36" fill="#D9ED87" rx="18"/><path fill="#123638" d="M10.143 10.143H18V18h-7.857zm11 0H29V18h-7.857zM7 18h7.857v7.857H7zm10.999 0h7.857v7.857h-7.857z"/><path fill="#fff" d="M53.05 25.2c-.713 0-1.413-.09-2.1-.27a6.603 6.603 0 0 1-1.88-.81 4.865 4.865 0 0 1-1.41-1.35c-.367-.54-.587-1.173-.66-1.9h2.99c.1.44.29.81.57 1.11.28.3.633.53 1.06.69.427.16.9.24 1.42.24.533 0 1.02-.067 1.46-.2.44-.133.793-.333 1.06-.6a1.4 1.4 0 0 0 .4-1.02c0-.367-.11-.667-.33-.9-.213-.233-.503-.423-.87-.57a7.14 7.14 0 0 0-1.25-.36l-2.5-.51c-1.093-.207-1.96-.64-2.6-1.3-.64-.667-.97-1.553-.99-2.66-.007-.907.233-1.69.72-2.35.493-.667 1.16-1.18 2-1.54.847-.36 1.793-.54 2.84-.54 1.247 0 2.293.197 3.14.59.853.387 1.5.913 1.94 1.58.447.66.677 1.397.69 2.21h-2.93c-.053-.507-.207-.91-.46-1.21-.253-.3-.58-.517-.98-.65a4.198 4.198 0 0 0-1.35-.2c-.387 0-.74.043-1.06.13-.313.087-.58.21-.8.37-.22.153-.39.337-.51.55-.12.213-.18.453-.18.72 0 .42.14.76.42 1.02.28.26.803.473 1.57.64l2.48.51c.887.173 1.59.43 2.11.77.527.34.92.723 1.18 1.15.267.427.44.863.52 1.31.087.44.13.847.13 1.22 0 .78-.247 1.483-.74 2.11-.487.62-1.167 1.113-2.04 1.48-.873.36-1.893.54-3.06.54zm10.93 0c-.66 0-1.253-.123-1.78-.37a2.967 2.967 0 0 1-1.25-1.07c-.306-.473-.46-1.047-.46-1.72 0-1.133.424-1.993 1.27-2.58.847-.593 2.184-.9 4.01-.92l1.29-.02v-.62c0-.473-.14-.837-.42-1.09-.273-.26-.7-.387-1.28-.38a2.794 2.794 0 0 0-1.22.3c-.38.193-.64.53-.78 1.01h-2.43c.04-.747.257-1.36.65-1.84.394-.487.927-.847 1.6-1.08.68-.24 1.45-.36 2.31-.36 1.06 0 1.91.133 2.55.4.64.26 1.104.637 1.39 1.13.287.487.43 1.067.43 1.74V25h-2.44l-.24-1.78c-.353.747-.796 1.263-1.33 1.55-.526.287-1.15.43-1.87.43zm.98-1.92c.267 0 .524-.047.77-.14.254-.1.477-.23.67-.39.2-.167.36-.353.48-.56.12-.207.18-.42.18-.64v-1.53l-1.05.02a5.5 5.5 0 0 0-1.36.18c-.42.107-.76.283-1.02.53-.253.247-.38.58-.38 1 0 .48.167.857.5 1.13.334.267.737.4 1.21.4zm10.407 1.92c-.66 0-1.253-.123-1.78-.37a2.967 2.967 0 0 1-1.25-1.07c-.306-.473-.46-1.047-.46-1.72 0-1.133.424-1.993 1.27-2.58.847-.593 2.183-.9 4.01-.92l1.29-.02v-.62c0-.473-.14-.837-.42-1.09-.273-.26-.7-.387-1.28-.38a2.794 2.794 0 0 0-1.22.3c-.38.193-.64.53-.78 1.01h-2.43c.04-.747.257-1.36.65-1.84.394-.487.927-.847 1.6-1.08.68-.24 1.45-.36 2.31-.36 1.06 0 1.91.133 2.55.4.64.26 1.103.637 1.39 1.13.287.487.43 1.067.43 1.74V25h-2.44l-.24-1.78c-.353.747-.796 1.263-1.33 1.55-.526.287-1.15.43-1.87.43zm.98-1.92c.267 0 .524-.047.77-.14.254-.1.477-.23.67-.39.2-.167.36-.353.48-.56.12-.207.18-.42.18-.64v-1.53l-1.05.02a5.5 5.5 0 0 0-1.36.18c-.42.107-.76.283-1.02.53-.253.247-.38.58-.38 1 0 .48.167.857.5 1.13.334.267.737.4 1.21.4zm13.285 1.92c-.713 0-1.413-.09-2.1-.27a6.604 6.604 0 0 1-1.88-.81 4.867 4.867 0 0 1-1.41-1.35c-.367-.54-.587-1.173-.66-1.9h2.99c.1.44.29.81.57 1.11.28.3.633.53 1.06.69.427.16.9.24 1.42.24.533 0 1.02-.067 1.46-.2.44-.133.793-.333 1.06-.6a1.4 1.4 0 0 0 .4-1.02c0-.367-.11-.667-.33-.9-.213-.233-.503-.423-.87-.57a7.137 7.137 0 0 0-1.25-.36l-2.5-.51c-1.093-.207-1.96-.64-2.6-1.3-.64-.667-.97-1.553-.99-2.66-.007-.907.233-1.69.72-2.35.493-.667 1.16-1.18 2-1.54.847-.36 1.793-.54 2.84-.54 1.247 0 2.293.197 3.14.59.853.387 1.5.913 1.94 1.58.447.66.677 1.397.69 2.21h-2.93c-.053-.507-.207-.91-.46-1.21-.253-.3-.58-.517-.98-.65a4.198 4.198 0 0 0-1.35-.2c-.387 0-.74.043-1.06.13-.313.087-.58.21-.8.37-.22.153-.39.337-.51.55-.12.213-.18.453-.18.72 0 .42.14.76.42 1.02.28.26.803.473 1.57.64l2.48.51c.887.173 1.59.43 2.11.77.527.34.92.723 1.18 1.15.267.427.44.863.52 1.31.087.44.13.847.13 1.22 0 .78-.247 1.483-.74 2.11-.487.62-1.167 1.113-2.04 1.48-.873.36-1.893.54-3.06.54zm11.007-10.54V25h-2.79V14.66h2.79zm.03-4.11v2.63h-2.84v-2.63h2.84zm7.056 14.65c-1.013 0-1.897-.217-2.65-.65a4.454 4.454 0 0 1-1.74-1.84c-.407-.793-.61-1.733-.61-2.82 0-1.087.203-2.037.61-2.85a4.612 4.612 0 0 1 1.74-1.9c.753-.453 1.64-.68 2.66-.68 1.02 0 1.903.223 2.65.67.747.44 1.323 1.067 1.73 1.88.407.813.61 1.773.61 2.88 0 1.04-.2 1.96-.6 2.76a4.454 4.454 0 0 1-1.71 1.87c-.74.453-1.637.68-2.69.68zm.01-2.17c.513 0 .927-.15 1.24-.45.313-.3.54-.693.68-1.18.147-.493.22-1.03.22-1.61 0-.547-.067-1.063-.2-1.55-.127-.487-.347-.88-.66-1.18-.313-.3-.74-.45-1.28-.45-.513 0-.93.143-1.25.43-.313.28-.543.663-.69 1.15a5.45 5.45 0 0 0-.22 1.6c0 .54.067 1.06.2 1.56.133.493.357.897.67 1.21.313.313.743.47 1.29.47z"/></svg>