<svg xmlns="http://www.w3.org/2000/svg" width="147" height="36" fill="none"><path fill="#fff" d="M8.814 5.385v29.783a.81.81 0 0 1-.386.693.765.765 0 0 1-.777.01L.602 31.847a.809.809 0 0 1-.403-.704V1.361A.81.81 0 0 1 .585.668a.765.765 0 0 1 .777-.01L8.41 4.681a.809.809 0 0 1 .404.703zm11.614 0v29.783a.81.81 0 0 1-.386.693.765.765 0 0 1-.777.01l-7.048-4.024a.81.81 0 0 1-.403-.704V1.361A.81.81 0 0 1 12.2.668a.765.765 0 0 1 .777-.01l7.048 4.024a.809.809 0 0 1 .403.703zm11.615 0v29.783a.81.81 0 0 1-.386.693.765.765 0 0 1-.777.01l-7.048-4.024a.809.809 0 0 1-.404-.704V1.361a.81.81 0 0 1 .386-.693.765.765 0 0 1 .777-.01l7.049 4.024a.809.809 0 0 1 .403.703z"/><path fill="#FAFAFA" d="M47.778 28.7V16.524c0-.712-.057-2.171-.171-4.376l1.525 5.346 3.621 11.204h2.994l3.62-11.204c.054-.168.113-.358.177-.569l.078-.263c.31-1.05.725-2.554 1.242-4.514-.085 2.09-.13 3.274-.135 3.55-.005.275-.007.55-.007.826V28.7h3.735V8.614h-5.603l-3.692 11.789-.898 3.221-.684-2.694-.314-1.083-3.592-11.233h-5.63v20.085h3.734zm24.208.284c2.262 0 3.954-1.012 5.075-3.036h.086c.095.96.382 1.687.862 2.181s1.224.741 2.231.741a8.576 8.576 0 0 0 1.354-.1c.19-.028.38-.066.57-.114.19-.047.404-.1.642-.156v-2.167a4.49 4.49 0 0 1-.884.085c-.456 0-.781-.164-.976-.491-.195-.328-.293-.925-.293-1.79v-5.616c0-1.768-.527-3.131-1.582-4.091-1.055-.96-2.556-1.44-4.504-1.44-1.93 0-3.453.387-4.57 1.162-1.116.774-1.802 1.912-2.06 3.414l4.178.2c.085-.78.301-1.338.648-1.675.347-.338.891-.507 1.632-.507.799 0 1.374.245 1.725.735.352.49.528 1.238.528 2.245v.784l-3.322.057c-1.976.019-3.485.447-4.526 1.283-1.04.836-1.56 2.053-1.56 3.65 0 1.472.418 2.615 1.254 3.427.836.813 2 1.22 3.492 1.22zm1.283-2.794c-.56 0-1.01-.178-1.347-.534-.337-.357-.506-.9-.506-1.633 0-.57.102-1.026.307-1.368.204-.342.501-.596.89-.763.39-.166 1.05-.268 1.982-.306l2.053-.029v.784c0 .675-.147 1.314-.442 1.918a3.494 3.494 0 0 1-1.219 1.418 3.051 3.051 0 0 1-1.718.513zm15.37 2.51v-7.57c0-1.587.279-2.785.834-3.592.556-.808 1.333-1.212 2.331-1.212.494 0 1.064.071 1.71.214v-3.35c-.313-.143-.726-.214-1.24-.214-.627 0-1.15.107-1.567.32-.419.214-.78.542-1.084.984-.304.442-.65 1.205-1.04 2.288h-.058c0-.285-.023-.862-.07-1.732-.048-.87-.086-1.39-.115-1.56h-3.82a51.876 51.876 0 0 1 .114 3.62v11.803h4.005zm11.28.256c1.263 0 2.39-.162 3.378-.485v-2.48c-.58.133-1.026.2-1.34.2-.599 0-1.041-.179-1.326-.535-.285-.357-.427-.91-.427-1.661v-8.011h2.922v-2.709h-2.922v-3.62h-2.51l-1.254 3.62h-2.152v2.709h1.953v9.094c0 1.302.318 2.274.955 2.916.636.641 1.544.962 2.722.962zm9.753-18.46V7.544h-4.005v2.95h4.005zm0 18.203V13.275h-4.005V28.7h4.005zm8.086 0v-8.268c0-1.302.297-2.369.891-3.2.594-.832 1.376-1.247 2.345-1.247 1.834 0 2.751 1.354 2.751 4.062V28.7h3.992v-9.793c0-1.939-.438-3.412-1.312-4.42-.874-1.007-2.129-1.51-3.763-1.51-1.131 0-2.105.266-2.922.798-.818.532-1.497 1.388-2.039 2.566h-.057a32.5 32.5 0 0 0-.071-1.618c-.048-.784-.086-1.266-.114-1.447h-3.821a46.621 46.621 0 0 1 .114 3.45V28.7h4.006zm20.616.285c2.452 0 4.372-.71 5.759-2.13 1.388-1.422 2.081-3.382 2.081-5.881 0-2.575-.662-4.55-1.988-5.923-1.326-1.373-3.248-2.06-5.766-2.06-2.462 0-4.377.71-5.745 2.131-1.369 1.421-2.053 3.372-2.053 5.852 0 2.49.684 4.448 2.053 5.873 1.368 1.425 3.255 2.138 5.659 2.138zm-.043-2.737c-1.121 0-1.979-.449-2.573-1.347-.594-.898-.891-2.207-.891-3.927 0-3.488 1.217-5.232 3.65-5.232 1.14 0 2.01.414 2.608 1.24.599.827.898 2.158.898 3.992 0 3.516-1.23 5.274-3.692 5.274z"/></svg>