<svg xmlns="http://www.w3.org/2000/svg" width="152" height="31" fill="none"><path fill="#fff" d="m6.046 10.373 3.742-2.158L7.7 4.599h19.646l-9.82 17.014-2.088-3.622-3.743 2.164 5.832 10.098L34.83.276H.214l5.832 10.097zM50.063 24.13 57.535 6.4h-3.571l-5.269 12.866L43.402 6.4H39.83l7.472 17.73h2.761zM61.76 6.4v17.73h13.196v-3.141h-9.802v-4.256h8.282v-3.14h-8.282V9.54h9.675V6.4H61.76zm18.066 0v17.73h3.394v-6.257h4.129l3.723 6.256h3.774l-4.052-6.838c2.051-.912 3.368-2.862 3.368-5.167 0-1.621-.582-2.99-1.773-4.078-1.165-1.09-2.608-1.647-4.356-1.647h-8.207zm8.207 3.14c1.494 0 2.583 1.09 2.583 2.584s-1.089 2.609-2.583 2.609H83.22V9.54h4.813zm15.889 0v14.59h3.419V9.54h5.877V6.4H98.046v3.14h5.876zm13.917-3.14v17.73h13.197v-3.141h-9.803v-4.256h8.283v-3.14h-8.283V9.54h9.676V6.4h-13.07zm23.411 8.687-6.585 9.043h4.078l4.533-6.257 4.534 6.256h4.053l-6.56-9.042L151.61 6.4h-4.053l-4.281 5.902-4.28-5.902h-4.078l6.332 8.688z"/></svg>