<svg xmlns="http://www.w3.org/2000/svg" width="127" height="44" fill="none"><path fill="#F4F4F5" fill-rule="evenodd" d="M20.032 12.658v27.206c-2.153 1.325-4.716 2.417-7.547 3.134-2.339.593-4.636.873-6.784.873-2.07 0-4.002-.26-5.701-.753V15.913h.003c.633.184 1.298.335 1.99.452.641.11 1.306.19 1.99.239.56.042 1.134.063 1.718.063 2.149 0 4.445-.281 6.784-.873 2.831-.718 5.394-1.81 7.547-3.136zm-3.981 6.246c-.168.057-.337.113-.507.168h.507v-.168z" clip-rule="evenodd"/><path fill="#fff" stroke="#123638" stroke-width="3" d="M19.571 32.713c2.71-.679 5.175-1.673 7.29-2.866V3.19a33.163 33.163 0 0 1-6.56 2.386c-2.725.683-5.411 1.01-7.937 1.01-.687 0-1.363-.025-2.026-.074a24.951 24.951 0 0 1-2.36-.28l11.593 26.48zm0 0c-2.494.626-4.937.919-7.207.919m7.207-.92-7.207.92m0 0c-1.75 0-3.387-.174-4.864-.5m4.864.5-4.864-.5m0 0V6.148c.158.03.317.058.476.085l-.476 26.9z"/><path fill="#fff" d="M43.584 40.09v-8.921h2.062c1.547 0 2.865-.553 3.954-1.66 1.09-1.106 1.634-2.437 1.634-3.993V22.08c0-1.616-.48-2.947-1.44-3.993-1.028-1.098-2.41-1.647-4.148-1.647h-5.614v23.65h3.552zm2.153-12.448h-2.153v-7.559h2.153c.622 0 1.117.188 1.484.564.368.376.551.876.551 1.498v3.449a1.99 1.99 0 0 1-.59 1.445 1.945 1.945 0 0 1-1.445.603zm11.16 12.447.869-5.432h3.721l.843 5.432h3.734L62.11 16.44h-4.914l-4.007 23.65h3.708zm4.059-8.907H58.31l1.322-9.322 1.323 9.322zm13.066 8.907v-8.92h2.062c1.547 0 2.865-.553 3.954-1.66 1.09-1.106 1.634-2.437 1.634-3.993V22.08c0-1.616-.48-2.947-1.44-3.993-1.028-1.098-2.41-1.647-4.148-1.647H70.47v23.65h3.552zm2.152-12.447h-2.152v-7.559h2.152c.623 0 1.118.188 1.485.564.367.376.551.876.551 1.498v3.449c0 .561-.197 1.043-.59 1.445a1.945 1.945 0 0 1-1.446.603zM96.061 40.09v-3.565h-6.587v-6.47h4.81v-3.579h-4.81v-6.47h6.587V16.44h-10.14v23.65h10.14zm7.414 0v-8.92h2.048c.113 0 .221-.004.324-.013l2.179 8.933h3.85l-2.645-10.333c1.271-1.15 1.906-2.563 1.906-4.24V22.08c0-1.703-.41-3.034-1.231-3.993-.925-1.098-2.382-1.647-4.37-1.647h-5.614v23.65h3.553zm2.152-12.447h-2.152v-7.559h2.152c1.357 0 2.036.688 2.036 2.062v3.449c0 .561-.197 1.043-.59 1.445a1.947 1.947 0 0 1-1.446.603zm20.898 12.447v-3.54h-6.561l6.561-16.543V16.44h-10.399v3.566h6.574l-6.574 16.544v3.54h10.399z"/></svg>