<svg xmlns="http://www.w3.org/2000/svg" width="170" height="37" fill="none"><path fill="#fff" d="m7.555 10.254 2.59 1.296a3.336 3.336 0 0 0 2.993-.162l2.449-1.593a3.298 3.298 0 0 0 1.36-2.67l-.155-2.92a3.316 3.316 0 0 0-1.633-2.507L12.57.37a3.316 3.316 0 0 0-2.993.155L7.127 2.12a3.31 3.31 0 0 0-1.36 2.668l.155 2.922a3.31 3.31 0 0 0 1.633 2.545zm15.628 3.784-2.59-1.328a3.324 3.324 0 0 0-2.987.162l-2.474 1.593a3.335 3.335 0 0 0-1.36 2.669l.155 2.921a3.317 3.317 0 0 0 1.632 2.507l2.591 1.296a3.305 3.305 0 0 0 2.987-.156l2.454-1.593a3.35 3.35 0 0 0 1.36-2.676l-.155-2.915a3.33 3.33 0 0 0-1.613-2.48zm7.995 12.319-2.591-1.295a3.315 3.315 0 0 0-2.993.155l-2.449 1.594a3.32 3.32 0 0 0-1.36 2.668l.156 2.922a3.33 3.33 0 0 0 1.62 2.468l2.59 1.295a3.337 3.337 0 0 0 2.993-.162l2.455-1.593a3.31 3.31 0 0 0 1.354-2.669l-.137-2.87a3.31 3.31 0 0 0-1.638-2.513z"/><path fill="#fff" d="m12.088 19.102-.123-2.274a3.335 3.335 0 0 1 1.36-2.669l4.774-3.102a3.323 3.323 0 0 1 2.986-.162l2.034 1.036a3.317 3.317 0 0 0 2.992-.155l2.449-1.6a3.315 3.315 0 0 0 1.36-2.669l-.155-2.915a3.317 3.317 0 0 0-1.633-2.513L25.542.751a3.336 3.336 0 0 0-2.993.162l-2.5 1.568a3.31 3.31 0 0 0-1.354 2.668l.116 2.274a3.31 3.31 0 0 1-1.353 2.669l-4.774 3.102a3.317 3.317 0 0 1-2.993.156l-2.027-1.03a3.316 3.316 0 0 0-2.993.155L2.223 14.07a3.31 3.31 0 0 0-1.36 2.668l.155 2.922a3.31 3.31 0 0 0 1.633 2.513l2.59 1.295a3.336 3.336 0 0 0 2.993-.162l2.448-1.593a3.315 3.315 0 0 0 1.406-2.61zm25.644-2.189A3.343 3.343 0 0 0 36.1 14.4l-2.591-1.296a3.343 3.343 0 0 0-2.993.162l-2.448 1.593a3.324 3.324 0 0 0-1.36 2.67l.123 2.28a3.323 3.323 0 0 1-1.36 2.668l-4.768 3.096a3.336 3.336 0 0 1-2.993.162l-2.034-1.037a3.323 3.323 0 0 0-2.986.162l-2.474 1.587a3.337 3.337 0 0 0-1.36 2.67l.155 2.92a3.318 3.318 0 0 0 1.633 2.507l2.59 1.328a3.304 3.304 0 0 0 2.987-.156l2.454-1.593a3.341 3.341 0 0 0 1.36-2.669l-.122-2.28a3.315 3.315 0 0 1 1.36-2.668l4.767-3.103a3.316 3.316 0 0 1 2.993-.155l2.027 1.03a3.316 3.316 0 0 0 2.993-.156l2.455-1.593a3.317 3.317 0 0 0 1.353-2.67l-.13-2.946zm6.129-11.196h6.867l3.22 13.033 3.22-13.033h7.17l-6.531 20.902h-7.748L43.861 5.717zM71.08 26.862c-1.702 0-3.028-.547-3.98-1.64-.952-1.094-1.428-2.583-1.428-4.466v-9.358h6.44v9.084c0 .466.122.83.365 1.094.263.243.598.364 1.003.364.405 0 .82-.121 1.245-.364l.335 4.223c-.446.344-1.033.608-1.763.79a8.87 8.87 0 0 1-2.218.273zM68.891 9.12c-.952 0-1.762-.293-2.43-.88-.649-.608-.973-1.348-.973-2.219 0-.87.345-1.6 1.033-2.187a3.546 3.546 0 0 1 2.37-.881c.932 0 1.732.304 2.4.911.689.608 1.033 1.327 1.033 2.157 0 .892-.344 1.63-1.033 2.218a3.587 3.587 0 0 1-2.4.881zm7.938 2.49h6.41v3.1c.466-1.195 1.094-2.077 1.884-2.644.81-.587 1.752-.88 2.825-.88l.882 4.952c-1.925 0-3.342.212-4.254.638-.891.405-1.337 1.053-1.337 1.944v7.9h-6.41V11.61zm21.549 15.252c-1.701 0-3.22-.334-4.557-1.002-1.317-.669-2.35-1.59-3.099-2.765-.73-1.195-1.094-2.562-1.094-4.102 0-1.539.375-2.896 1.124-4.07.75-1.196 1.783-2.117 3.1-2.765 1.336-.649 2.855-.973 4.557-.973 1.721 0 3.24.335 4.557 1.003 1.337.648 2.37 1.56 3.099 2.734.729 1.175 1.094 2.532 1.094 4.071 0 1.56-.375 2.937-1.125 4.132-.729 1.175-1.762 2.097-3.099 2.765-1.316.648-2.835.972-4.557.972zm.061-4.557c.83 0 1.509-.304 2.036-.911.546-.628.82-1.428.82-2.4 0-.973-.274-1.763-.82-2.37-.527-.628-1.206-.942-2.036-.942-.83 0-1.52.314-2.066.942-.527.607-.79 1.397-.79 2.37 0 .972.263 1.772.79 2.4.547.607 1.236.911 2.066.911zm19.595 11.272c-1.114 0-2.178-.112-3.19-.334l.486-4.497c.79.122 1.519.182 2.187.182 1.256 0 2.208-.375 2.856-1.124.648-.729 1.033-1.965 1.155-3.706-1.195 1.68-3.018 2.521-5.469 2.521a7.014 7.014 0 0 1-3.707-1.033 7.698 7.698 0 0 1-2.673-2.795c-.648-1.175-.972-2.46-.972-3.858 0-1.418.324-2.714.972-3.89.648-1.194 1.529-2.136 2.643-2.825a7.011 7.011 0 0 1 3.707-1.033c1.235 0 2.309.324 3.22.973a4.313 4.313 0 0 1 1.823 2.552v-3.525h6.41v11.576c0 3.544-.81 6.228-2.43 8.05-1.6 1.844-3.94 2.766-7.018 2.766zm0-11.515c.81 0 1.509-.284 2.096-.85.587-.588.901-1.277.942-2.067v-.243c-.041-.77-.365-1.448-.972-2.035-.588-.588-1.276-.881-2.066-.881-.831 0-1.54.303-2.127.911a2.9 2.9 0 0 0-.881 2.127c0 .83.294 1.55.881 2.157a2.897 2.897 0 0 0 2.127.881zm19.241 4.8a7.115 7.115 0 0 1-3.707-1.033 8.045 8.045 0 0 1-2.734-2.856c-.689-1.215-1.033-2.562-1.033-4.04 0-1.459.344-2.775 1.033-3.95.689-1.195 1.61-2.127 2.765-2.795a7.221 7.221 0 0 1 3.676-1.003c1.053 0 2.025.294 2.916.881.912.588 1.601 1.469 2.066 2.644v-3.525h6.381V26.62h-6.381v-2.825c-1.012 2.045-2.673 3.068-4.982 3.068zm1.975-4.8c.81 0 1.498-.284 2.066-.85.587-.588.901-1.277.941-2.067v-.243c-.04-.81-.364-1.498-.972-2.066-.587-.567-1.266-.85-2.035-.85-.851 0-1.58.303-2.188.911a2.9 2.9 0 0 0-.881 2.127c0 .85.304 1.57.912 2.157.607.587 1.326.881 2.157.881zm12.465-10.452h6.107v3.1c1.174-2.35 3.038-3.525 5.59-3.525 1.944 0 3.463.7 4.557 2.097 1.114 1.377 1.671 3.291 1.671 5.742v7.595h-6.38v-8.233c0-.871-.192-1.54-.577-2.005-.365-.466-.881-.7-1.55-.7-.486 0-.962.163-1.428.487-.466.304-.85.75-1.154 1.337-.284.587-.426 1.256-.426 2.005v7.11h-6.41V11.61z"/></svg>